<svg width="38" height="38" viewBox="0 0 38 38" fill="none" xmlns="http://www.w3.org/2000/svg">
<path fill-rule="evenodd" clip-rule="evenodd" d="M19 0C29.4934 0 38 8.50659 38 19C38 29.4934 29.4934 38 19 38C8.50659 38 0 29.4934 0 19C0 8.50659 8.50659 0 19 0ZM20.1379 7.73945C21.4299 7.90068 22.4739 8.21188 23.6194 8.77061C24.746 9.32187 25.4671 9.84308 26.421 10.7918C27.3148 11.688 27.8106 12.3668 28.3363 13.4205C29.0687 14.8904 29.4855 16.6379 29.5569 18.5616C29.5832 19.2178 29.5644 19.364 29.4141 19.5515C29.1287 19.9153 28.5015 19.8552 28.2875 19.4465C28.2199 19.3115 28.2011 19.1953 28.1785 18.6703C28.141 17.8641 28.0847 17.3429 27.972 16.7204C27.5289 14.2792 26.3571 12.3293 24.4868 10.9305C22.9283 9.7606 21.3172 9.1906 19.2066 9.06686C18.493 9.02562 18.3691 8.99942 18.2076 8.87565C17.9071 8.6394 17.8921 8.08445 18.1813 7.82571C18.3578 7.66443 18.4817 7.64193 19.0939 7.66068C19.4131 7.67192 19.8826 7.70944 20.1379 7.73945ZM11.5527 8.14444C11.6842 8.18942 11.887 8.2944 12.0035 8.36941C12.717 8.84192 14.7036 11.3805 15.3534 12.648C15.7251 13.3717 15.8491 13.908 15.7327 14.3054C15.6125 14.7329 15.4135 14.9579 14.5234 15.6742C14.1666 15.9629 13.8323 16.2591 13.7798 16.3379C13.6446 16.5329 13.5356 16.9154 13.5356 17.1853C13.5395 17.8116 13.9451 18.9478 14.4784 19.8215C14.8914 20.5003 15.6312 21.3702 16.3636 22.0377C17.2236 22.8252 17.9822 23.3614 18.8385 23.7851C19.9389 24.3326 20.6111 24.4713 21.1031 24.2426C21.2271 24.1864 21.3585 24.1114 21.3998 24.0777C21.4373 24.0439 21.7266 23.6914 22.042 23.3014C22.6504 22.5364 22.7894 22.4127 23.2062 22.2702C23.7358 22.0902 24.2766 22.1389 24.8211 22.4164C25.2343 22.6302 26.1356 23.1889 26.7177 23.5939C27.4838 24.1301 29.1212 25.4651 29.3429 25.7314C29.7334 26.2114 29.801 26.8263 29.5381 27.505C29.2602 28.2212 28.1786 29.5637 27.4237 30.1375C26.7402 30.6549 26.2557 30.8536 25.6173 30.8837C25.0915 30.9099 24.8737 30.8649 24.2015 30.5874C18.9287 28.4162 14.7187 25.1764 11.3762 20.7252C9.62991 18.4003 8.30042 15.9892 7.39155 13.488C6.86205 12.0293 6.8358 11.3955 7.27139 10.6493C7.4592 10.3343 8.25912 9.55437 8.84122 9.11941C9.81018 8.39941 10.2571 8.13315 10.6139 8.05818C10.858 8.00567 11.2823 8.04693 11.5527 8.14444ZM20.397 10.4581C22.6767 10.7918 24.4418 11.8493 25.5985 13.5667C26.2483 14.5342 26.6538 15.6704 26.7928 16.8891C26.8416 17.3353 26.8416 18.1491 26.789 18.2841C26.7402 18.4116 26.5825 18.5841 26.4473 18.6553C26.3008 18.7303 25.9891 18.7228 25.8163 18.6328C25.5271 18.4866 25.4408 18.2541 25.4408 17.6241C25.4408 16.6529 25.1891 15.6291 24.7536 14.8342C24.2578 13.9267 23.5367 13.1768 22.6579 12.6555C21.9031 12.2055 20.7877 11.8718 19.7699 11.7893C19.4018 11.7593 19.199 11.6843 19.0601 11.523C18.8461 11.2793 18.8235 10.9493 19.0037 10.6756C19.199 10.3718 19.4995 10.3231 20.397 10.4581ZM21.197 13.2892C21.9368 13.4467 22.504 13.728 22.9884 14.1817C23.6118 14.7704 23.9536 15.4829 24.1038 16.5066C24.2052 17.1741 24.1639 17.4366 23.9273 17.6541C23.7057 17.8566 23.2964 17.864 23.0485 17.6728C22.8682 17.5378 22.8119 17.3953 22.7706 17.0091C22.7218 16.4954 22.6316 16.1354 22.4777 15.8016C22.1472 15.0929 21.5651 14.7254 20.5811 14.6054C20.1191 14.5492 19.9802 14.4967 19.83 14.3205C19.5558 13.9942 19.661 13.4655 20.0403 13.2705C20.183 13.1992 20.2431 13.1917 20.5585 13.2105C20.7538 13.2217 21.0431 13.2554 21.197 13.2892Z" fill="#7F4DA0"/>
</svg>
